<svg xmlns="http://www.w3.org/2000/svg" viewBox="0 0 1000 650">
  <path d="M 150 200 L 170 100 L 190 150 L 210 100 L 230 200" stroke="#FFFFFF" stroke-width="8" fill="none" stroke-linecap="round" stroke-linejoin="round" transform="rotate(-15 190 150)"/>
  <text x="330" y="180" font-family="'Helvetica Neue', Helvetica, Arial, sans-serif" font-size="120" font-weight="900" fill="#FFFFFF">I</text>
  <text x="400" y="280" font-family="'Helvetica Neue', Helvetica, Arial, sans-serif" font-size="130" font-weight="900" fill="#FFFFFF" transform="rotate(5 400 280)">L</text>
  <text x="240" y="380" font-family="'Helvetica Neue', Helvetica, Arial, sans-serif" font-size="130" font-weight="900" fill="#FFFFFF" transform="rotate(-8 240 380)">L</text>
  <text x="450" y="400" font-family="'Helvetica Neue', Helvetica, Arial, sans-serif" font-size="125" font-weight="900" fill="#FFFFFF" transform="rotate(12 450 400)">E</text>
  <text x="640" y="300" font-family="'Helvetica Neue', Helvetica, Arial, sans-serif" font-size="135" font-weight="900" fill="#FFFFFF" transform="rotate(-10 640 300)">R</text>
  <path d="M 560 520 L 590 380 L 620 460 L 650 380 L 680 520" stroke="#FFFFFF" stroke-width="10" fill="none" stroke-linecap="round" stroke-linejoin="round" transform="rotate(8 620 450)"/>
  <text x="220" y="550" font-family="'Helvetica Neue', Helvetica, Arial, sans-serif" font-size="140" font-weight="900" fill="#FFFFFF" transform="rotate(-12 220 550)">O</text>
  <text x="710" y="580" font-family="'Helvetica Neue', Helvetica, Arial, sans-serif" font-size="130" font-weight="900" fill="#FFFFFF" transform="rotate(15 710 580)">D</text>
  <text x="810" y="480" font-family="'Helvetica Neue', Helvetica, Arial, sans-serif" font-size="120" font-weight="900" fill="#FFFFFF" transform="rotate(-5 810 480)">E</text>
  <text x="500" y="600" font-family="'Helvetica Neue', Helvetica, Arial, sans-serif" font-size="28" font-weight="300" fill="#FFFFFF" text-anchor="middle" letter-spacing="6">FASHION STYLIST</text>
</svg>
